<svg width="131" height="32" viewBox="0 0 131 32" fill="none" xmlns="http://www.w3.org/2000/svg">
<path d="M52.0938 18.2227C52.0391 19.4102 51.7188 20.4609 51.1328 21.375C50.5469 22.2812 49.7227 22.9844 48.6602 23.4844C47.6055 23.9844 46.3984 24.2344 45.0391 24.2344C42.7969 24.2344 41.0312 23.5039 39.7422 22.043C38.4531 20.582 37.8086 18.5195 37.8086 15.8555V15.0117C37.8086 13.3398 38.0977 11.8789 38.6758 10.6289C39.2617 9.37109 40.1016 8.40234 41.1953 7.72266C42.2891 7.03516 43.5547 6.69141 44.9922 6.69141C47.0625 6.69141 48.7266 7.23828 49.9844 8.33203C51.2422 9.41797 51.957 10.918 52.1289 12.832H48.0273C47.9961 11.793 47.7344 11.0469 47.2422 10.5938C46.75 10.1406 46 9.91406 44.9922 9.91406C43.9688 9.91406 43.2188 10.2969 42.7422 11.0625C42.2656 11.8281 42.0156 13.0508 41.9922 14.7305V15.9375C41.9922 17.7578 42.2188 19.0586 42.6719 19.8398C43.1328 20.6211 43.9219 21.0117 45.0391 21.0117C45.9844 21.0117 46.707 20.7891 47.207 20.3438C47.707 19.8984 47.9727 19.1914 48.0039 18.2227H52.0938ZM57.0234 24H53.0625V6H57.0234V24ZM62.6328 24H58.6719V11.3203H62.6328V24ZM58.4375 8.05078C58.4375 7.48828 58.6406 7.02734 59.0469 6.66797C59.4531 6.30859 59.9805 6.12891 60.6289 6.12891C61.2773 6.12891 61.8047 6.30859 62.2109 6.66797C62.6172 7.02734 62.8203 7.48828 62.8203 8.05078C62.8203 8.61328 62.6172 9.07422 62.2109 9.43359C61.8047 9.79297 61.2773 9.97266 60.6289 9.97266C59.9805 9.97266 59.4531 9.79297 59.0469 9.43359C58.6406 9.07422 58.4375 8.61328 58.4375 8.05078ZM75.8477 17.7539C75.8477 19.7227 75.4023 21.2969 74.5117 22.4766C73.6289 23.6484 72.4336 24.2344 70.9258 24.2344C69.7617 24.2344 68.8047 23.8086 68.0547 22.957V28.875H64.1055V11.3203H67.7969L67.9141 12.4922C68.6719 11.5547 69.668 11.0859 70.9023 11.0859C72.4648 11.0859 73.6797 11.6641 74.5469 12.8203C75.4141 13.9688 75.8477 15.5508 75.8477 17.5664V17.7539ZM71.8984 17.5078C71.8984 15.2578 71.2422 14.1328 69.9297 14.1328C68.9922 14.1328 68.3672 14.4688 68.0547 15.1406V20.1328C68.3984 20.8359 69.0312 21.1875 69.9531 21.1875C71.2109 21.1875 71.8594 20.1016 71.8984 17.9297V17.5078ZM88.3711 17.7539C88.3711 19.7227 87.9258 21.2969 87.0352 22.4766C86.1523 23.6484 84.957 24.2344 83.4492 24.2344C82.2852 24.2344 81.3281 23.8086 80.5781 22.957V28.875H76.6289V11.3203H80.3203L80.4375 12.4922C81.1953 11.5547 82.1914 11.0859 83.4258 11.0859C84.9883 11.0859 86.2031 11.6641 87.0703 12.8203C87.9375 13.9688 88.3711 15.5508 88.3711 17.5664V17.7539ZM84.4219 17.5078C84.4219 15.2578 83.7656 14.1328 82.4531 14.1328C81.5156 14.1328 80.8906 14.4688 80.5781 15.1406V20.1328C80.9219 20.8359 81.5547 21.1875 82.4766 21.1875C83.7344 21.1875 84.3828 20.1016 84.4219 17.9297V17.5078ZM93.2891 24H89.3281V11.3203H93.2891V24ZM89.0938 8.05078C89.0938 7.48828 89.2969 7.02734 89.7031 6.66797C90.1094 6.30859 90.6367 6.12891 91.2852 6.12891C91.9336 6.12891 92.4609 6.30859 92.8672 6.66797C93.2734 7.02734 93.4766 7.48828 93.4766 8.05078C93.4766 8.61328 93.2734 9.07422 92.8672 9.43359C92.4609 9.79297 91.9336 9.97266 91.2852 9.97266C90.6367 9.97266 90.1094 9.79297 89.7031 9.43359C89.2969 9.07422 89.0938 8.61328 89.0938 8.05078ZM98.3594 11.3203L98.4883 12.8086C99.3633 11.6602 100.57 11.0859 102.109 11.0859C103.43 11.0859 104.414 11.4805 105.062 12.2695C105.719 13.0586 106.059 14.2461 106.082 15.832V24H102.121V15.9961C102.121 15.3555 101.992 14.8867 101.734 14.5898C101.477 14.2852 101.008 14.1328 100.328 14.1328C99.5547 14.1328 98.9805 14.4375 98.6055 15.0469V24H94.6562V11.3203H98.3594ZM106.816 17.5664C106.816 16.2852 107.027 15.1523 107.449 14.168C107.871 13.1836 108.477 12.4258 109.266 11.8945C110.055 11.3555 110.973 11.0859 112.02 11.0859C113.34 11.0859 114.371 11.5312 115.113 12.4219L115.254 11.3203H118.84V23.5195C118.84 24.6367 118.578 25.6055 118.055 26.4258C117.539 27.2539 116.789 27.8867 115.805 28.3242C114.82 28.7695 113.68 28.9922 112.383 28.9922C111.453 28.9922 110.551 28.8164 109.676 28.4648C108.809 28.1133 108.145 27.6562 107.684 27.0938L109.336 24.7734C110.07 25.6406 111.039 26.0742 112.242 26.0742C113.992 26.0742 114.867 25.1758 114.867 23.3789V22.9805C114.109 23.8164 113.152 24.2344 111.996 24.2344C110.449 24.2344 109.199 23.6445 108.246 22.4648C107.293 21.2773 106.816 19.6914 106.816 17.707V17.5664ZM110.777 17.8125C110.777 18.8516 110.973 19.6758 111.363 20.2852C111.754 20.8867 112.301 21.1875 113.004 21.1875C113.855 21.1875 114.477 20.9023 114.867 20.332V15C114.484 14.4219 113.871 14.1328 113.027 14.1328C112.324 14.1328 111.773 14.4492 111.375 15.082C110.977 15.707 110.777 16.6172 110.777 17.8125ZM126.723 20.4375C126.723 20.1016 126.547 19.832 126.195 19.6289C125.844 19.4258 125.176 19.2148 124.191 18.9961C123.207 18.7773 122.395 18.4922 121.754 18.1406C121.113 17.7812 120.625 17.3477 120.289 16.8398C119.953 16.332 119.785 15.75 119.785 15.0938C119.785 13.9297 120.266 12.9727 121.227 12.2227C122.188 11.4648 123.445 11.0859 125 11.0859C126.672 11.0859 128.016 11.4648 129.031 12.2227C130.047 12.9805 130.555 13.9766 130.555 15.2109H126.594C126.594 14.1953 126.059 13.6875 124.988 13.6875C124.574 13.6875 124.227 13.8047 123.945 14.0391C123.664 14.2656 123.523 14.5508 123.523 14.8945C123.523 15.2461 123.695 15.5312 124.039 15.75C124.383 15.9688 124.93 16.1484 125.68 16.2891C126.438 16.4297 127.102 16.5977 127.672 16.793C129.578 17.4492 130.531 18.625 130.531 20.3203C130.531 21.4766 130.016 22.418 128.984 23.1445C127.961 23.8711 126.633 24.2344 125 24.2344C123.914 24.2344 122.945 24.0391 122.094 23.6484C121.242 23.2578 120.578 22.7266 120.102 22.0547C119.625 21.3828 119.387 20.6758 119.387 19.9336H123.078C123.094 20.5195 123.289 20.9492 123.664 21.2227C124.039 21.4883 124.52 21.6211 125.105 21.6211C125.645 21.6211 126.047 21.5117 126.312 21.293C126.586 21.0742 126.723 20.7891 126.723 20.4375Z" fill="black"/>
<rect x="8" y="8" width="16" height="17" fill="white"/>
<rect width="32" height="32" rx="1" fill="black"/>
<rect x="5" y="5" width="22" height="18" rx="1" fill="white"/>
<rect x="8" y="7" width="16" height="3" rx="1" fill="#C4C4C4"/>
<rect x="8" y="12" width="8" height="3" rx="1" fill="#C4C4C4"/>
<rect x="8" y="17" width="5" height="3" rx="1" fill="#C4C4C4"/>
</svg>
